<svg width="11" height="9" viewBox="0 0 11 9" fill="none" xmlns="http://www.w3.org/2000/svg">
<path d="M10.4141 2.03936C10.781 1.62658 10.7438 0.994509 10.331 0.627591C9.91826 0.260673 9.28619 0.297853 8.91927 0.710636L10.4141 2.03936ZM4.11112 7.625L3.36371 8.28936C3.55348 8.50285 3.82548 8.625 4.11112 8.625C4.39676 8.625 4.66876 8.50285 4.85853 8.28936L4.11112 7.625ZM2.08075 3.83564C1.71383 3.42285 1.08176 3.38567 0.66898 3.75259C0.256197 4.11951 0.219016 4.75158 0.585934 5.16436L2.08075 3.83564ZM8.91927 0.710636L3.36371 6.96064L4.85853 8.28936L10.4141 2.03936L8.91927 0.710636ZM4.85853 6.96064L2.08075 3.83564L0.585934 5.16436L3.36371 8.28936L4.85853 6.96064Z" fill="black"/>
</svg>
